<svg xmlns="http://www.w3.org/2000/svg" viewBox="0 0 64 64">
  <circle cx="32" cy="32" r="32" fill="#2D5A4A"/>
  <g transform="translate(32,34)">
    <!-- Cannabis leaf – 7 serrated leaflets -->
    <path d="M0,-22 C1,-18 3,-14 2,-10 C4,-14 9,-20 14,-22 C12,-16 9,-12 6,-9 C10,-10 16,-10 20,-8 C15,-5 10,-3 6,-2 C9,-1 14,1 16,5 C12,4 8,2 5,0 C6,3 6,8 4,12 C2,8 1,4 0,1 C-1,4 -2,8 -4,12 C-6,8 -6,3 -5,0 C-8,2 -12,4 -16,5 C-14,1 -9,-1 -6,-2 C-10,-3 -15,-5 -20,-8 C-16,-10 -10,-10 -6,-9 C-9,-12 -12,-16 -14,-22 C-9,-20 -4,-14 -2,-10 C-3,-14 -1,-18 0,-22Z" fill="#8BA888"/>
    <!-- Stem -->
    <line x1="0" y1="1" x2="0" y2="18" stroke="#8BA888" stroke-width="2.5" stroke-linecap="round"/>
  </g>
</svg>
