<svg xmlns="http://www.w3.org/2000/svg" viewBox="0 0 100 100">
  <defs>
    <linearGradient id="leafGradient" x1="0%" y1="0%" x2="100%" y2="100%">
      <stop offset="0%" style="stop-color:#4caf50"/>
      <stop offset="100%" style="stop-color:#1a472a"/>
    </linearGradient>
  </defs>
  <circle cx="50" cy="50" r="48" fill="#1a472a"/>
  <g transform="translate(50,50)">
    <!-- Cannabis leaf stylized -->
    <path d="M0,-35 Q5,-20 0,-10 Q-5,-20 0,-35" fill="url(#leafGradient)"/>
    <path d="M0,-35 Q15,-25 25,-30 Q10,-15 0,-10 Q-10,-15 -25,-30 Q-15,-25 0,-35" fill="url(#leafGradient)"/>
    <path d="M-20,-20 Q-10,-15 0,-10 Q-15,-5 -30,-10 Q-15,-10 -20,-20" fill="url(#leafGradient)"/>
    <path d="M20,-20 Q10,-15 0,-10 Q15,-5 30,-10 Q15,-10 20,-20" fill="url(#leafGradient)"/>
    <path d="M-15,0 Q-5,-5 0,-10 Q-10,5 -25,10 Q-10,0 -15,0" fill="url(#leafGradient)"/>
    <path d="M15,0 Q5,-5 0,-10 Q10,5 25,10 Q10,0 15,0" fill="url(#leafGradient)"/>
    <path d="M0,-10 L0,30" stroke="url(#leafGradient)" stroke-width="3" fill="none"/>
  </g>
</svg>
